HIERARCHY
ROOT Hips
{
   OFFSET 0.00000 0.00000 0.00000
   CHANNELS 6 Xposition Yposition Zposition Zrotation Xrotation Yrotation
   JOINT RightUpLeg
   {
      OFFSET -8.945800 -8.667070 0.101652
      CHANNELS 3 Zrotation Xrotation Yrotation
      JOINT RightLeg
      {
         OFFSET 0.000000 -44.422697 1.372700
         CHANNELS 3 Zrotation Xrotation Yrotation
         JOINT RightFoot
         {
            OFFSET 0.253549 -42.092399 -1.460590
            CHANNELS 3 Zrotation Xrotation Yrotation
            JOINT RightToes
            {
               OFFSET 0.040000 -4.415090 8.499099
               CHANNELS 3 Zrotation Xrotation Yrotation
               End Site
               {
                  OFFSET -0.080000 -0.137448 9.779790
               }
            }
         }
      }
   }
   JOINT Spine
   {
      OFFSET 0.000000 11.890501 0.000000
      CHANNELS 3 Zrotation Xrotation Yrotation
      JOINT Spine1
      {
         OFFSET 0.000000 25.657401 0.127663
         CHANNELS 3 Zrotation Xrotation Yrotation
         JOINT HEad
         {
            OFFSET 0.000000 8.734161 0.011341
            CHANNELS 3 Zrotation Xrotation Yrotation
            End Site
            {
               OFFSET -0.290000 12.774200 2.513950
            }
         }
         JOINT LeftShoulder1
         {
            OFFSET 8.990000 -0.362252 -0.220000
            CHANNELS 3 Zrotation Xrotation Yrotation
            JOINT LeftArm
            {
               OFFSET 10.282700 -0.003380 0.322123
               CHANNELS 3 Zrotation Xrotation Yrotation
               JOINT LeftForeArm
               {
                  OFFSET 32.766900 0.099144 -1.424340
                  CHANNELS 3 Zrotation Xrotation Yrotation
                  JOINT LeftHand
                  {
                     OFFSET 27.564301 0.085362 1.022160
                     CHANNELS 3 Zrotation Xrotation Yrotation
                     End Site
                     {
                        OFFSET 16.744301 -0.600000 1.502910
                     }
                  }
               }
            }
         }
         JOINT RightShoulder
         {
            OFFSET -8.990000 -0.362252 -0.220000
            CHANNELS 3 Zrotation Xrotation Yrotation
            JOINT RightArm
            {
               OFFSET -10.282700 -0.003380 0.322123
               CHANNELS 3 Zrotation Xrotation Yrotation
               JOINT RightForeArm
               {
                  OFFSET -32.897098 0.099144 -1.424340
                  CHANNELS 3 Zrotation Xrotation Yrotation
                  JOINT RightHand
                  {
                     OFFSET -27.492101 0.085362 1.022160
                     CHANNELS 3 Zrotation Xrotation Yrotation
                     End Site
                     {
                        OFFSET -16.631201 -0.600000 1.502910
                     }
                  }
               }
            }
         }
      }
   }
   JOINT LeftUpLeg
   {
      OFFSET 8.945800 -8.667070 0.101652
      CHANNELS 3 Zrotation Xrotation Yrotation
      JOINT LeftLeg
      {
         OFFSET 0.000000 -44.422697 1.372700
         CHANNELS 3 Zrotation Xrotation Yrotation
         JOINT LeftFoot
         {
            OFFSET -0.253549 -42.092399 -1.460590
            CHANNELS 3 Zrotation Xrotation Yrotation
            JOINT LeftToes
            {
               OFFSET -0.040000 -4.415090 8.499099
               CHANNELS 3 Zrotation Xrotation Yrotation
               End Site
               {
                  OFFSET 0.080000 -0.047448 9.779790
               }
            }
         }
      }
   }
}
MOTION
Frames: 10
Frame Time: 0.016667
-869.194857 91.296195 456.234849 -61.889546 49.710281 -68.023787 -14.537091 -20.038872 -17.633353 -142.660727 135.529299 -104.289892 30.814778 35.610660 14.079170 40.220252 -32.767126 -15.427157 55.286505 27.456884 116.286716 13.187085 -5.085968 -117.652768 46.997166 21.588691 -46.478911 -75.725044 -23.151469 -30.270193 -20.106627 44.707676 -45.930775 32.081023 29.712146 -69.182173 -43.073270 -67.993748 -83.630721 83.203882 57.952980 -48.353344 129.881784 56.644053 176.955776 -6.817443 104.404346 56.472004 3.475890 8.282421 39.733884 56.736288 26.550223 -83.919918 -40.814943 -2.593459 129.120396 -59.263024 20.723011 24.648606 0.682106 -16.507415 -44.069518
-867.237231 91.672429 457.213548 -57.573406 46.390652 -68.989999 -14.657637 -19.263270 -8.136325 -134.396744 137.847615 241.556306 30.764261 36.278359 8.793023 42.127610 -34.988546 -19.800911 51.222915 26.451875 118.757455 12.662099 -6.901753 -122.122785 47.364702 21.156999 -46.107168 -71.857593 -22.154055 -26.515593 -23.679870 37.215211 -47.402073 28.509775 35.182281 -71.520789 -44.610441 -65.918572 -84.318767 84.738209 60.291036 -51.198015 129.144944 70.133024 177.316915 -7.587058 115.590720 54.371318 3.398131 8.720172 40.986609 48.552311 22.334623 -83.024685 -39.336658 -2.734555 135.311238 -56.902449 19.079367 25.374725 0.281121 -17.724124 -42.711253
-865.187289 92.128209 458.262894 -54.125332 43.034775 -71.683655 -17.093392 -21.009868 -10.516396 -126.028438 129.151091 226.781405 26.851473 38.185491 -0.929327 44.760716 -37.096274 -25.871295 45.117761 29.323269 122.702299 10.045420 -7.783661 -125.162438 46.173896 20.861517 -44.877727 -68.581048 -20.579478 -23.679409 -28.359000 28.858905 -50.102532 24.620817 40.992654 -73.813369 -45.948913 -63.994747 -84.995154 84.784026 60.962061 -51.776512 129.103785 84.076480 179.697141 -7.806807 126.902429 53.339263 4.754765 9.851319 41.929736 42.530413 20.736639 -83.952765 -38.510034 -4.310269 138.828909 -54.411391 18.940588 25.349832 0.965562 -17.568495 -42.193917
-862.980181 92.649258 459.466851 -54.284400 36.843048 -75.284005 -19.631241 -29.073568 -25.963571 -101.111122 98.804314 208.998680 20.316611 39.088063 -13.984225 47.303230 -39.803525 -32.453292 38.301611 35.504686 126.583404 8.620335 -5.975002 -128.560676 44.077318 20.892430 -42.919488 -64.044321 -17.360056 -20.322550 -33.302623 19.346262 -52.506799 21.716347 47.456588 -74.602174 -47.288453 -61.800023 -84.325850 83.414102 63.749837 -51.238600 127.735821 97.874008 180.887533 -7.450808 140.467567 52.658655 5.582692 10.664799 43.460763 35.107719 23.383474 -85.458248 -38.319765 -6.956462 141.192550 -51.282519 19.628799 26.281052 2.002489 -16.411688 -41.294900
-860.587679 93.319167 460.819848 -52.900385 35.606230 -79.539780 -8.498886 -28.752952 -43.453465 -55.458510 61.244168 195.303768 22.938820 34.665597 -12.982106 46.239035 -41.375667 -32.022963 35.453220 40.101349 130.623639 7.016178 -5.129364 -131.464763 42.374504 21.504764 -40.819779 -60.025082 -12.928148 -17.504301 -39.310911 9.621083 -56.061872 19.358110 53.608649 -75.312972 -48.924174 -59.081307 -82.323013 82.239897 67.183981 -46.935622 126.517930 112.735708 181.635576 -5.916799 154.258716 53.636314 5.874733 10.366738 45.740974 29.700842 22.305060 -86.505398 -37.243929 -8.917750 144.811430 -48.594603 19.335224 29.064531 1.456183 -16.058403 -38.035875
-858.002459 94.091834 462.251313 -48.411585 38.932375 -82.426907 -3.983304 -25.032858 -45.043745 -32.308133 52.601046 179.614400 27.494081 30.447986 -8.869896 44.589719 -41.752660 -30.197567 34.168213 43.356514 133.988408 4.114236 -5.015099 -135.092672 40.638174 22.915887 -38.609051 -55.811832 -8.098497 -17.010596 -46.390652 1.304567 -61.937433 17.793111 59.028257 -72.212318 -50.342937 -55.658027 -78.531951 77.374330 72.267520 -43.802655 124.768063 130.776553 185.801103 -3.836050 169.533068 55.405129 7.441273 11.499540 46.328241 29.458971 16.521328 -87.908175 -34.959439 -9.988084 148.380928 -46.942650 18.763090 32.265196 -0.046453 -16.044476 -33.310628
-855.296618 94.710892 463.661683 -44.385182 37.758235 -84.456471 -3.287738 -23.670249 -38.433433 -17.566307 49.724187 160.179138 28.527989 32.110847 -9.481015 44.729027 -39.446456 -31.078652 33.130082 45.090675 135.837682 1.977082 -3.689778 -140.541592 39.016376 24.323297 -36.350438 -50.839448 -2.498799 -14.620172 -54.530386 -5.869238 -69.009021 15.202586 64.319529 -70.534476 -51.466985 -52.864513 -74.919109 70.581877 73.132837 -41.490630 123.166930 148.135888 190.694059 -3.811894 183.877613 54.897222 8.549138 12.239487 45.040340 26.393878 11.714547 -89.656000 -33.249583 -10.996526 149.976802 -45.447461 18.748663 34.321533 -0.729612 -14.930667 -29.375151
-852.573458 95.222786 465.087655 -39.653705 33.664677 -86.656714 -3.872558 -23.406326 -29.444023 -8.786905 46.113892 137.988782 26.034540 36.734192 -13.568388 45.666880 -35.287851 -33.047163 31.068796 47.495759 137.744521 -0.319579 -2.214211 -146.165611 36.116944 25.343550 -33.773947 -45.591325 2.990907 -12.442609 -63.638539 -10.897071 -78.276741 12.876881 69.043268 -68.151771 -51.476919 -51.610613 -71.115158 63.285316 72.547230 -38.872236 120.105407 164.554434 195.102250 -1.825419 199.061164 57.118089 10.282128 13.671713 44.086621 21.013480 6.291388 -91.028479 -32.437603 -12.619805 149.927502 -44.146928 19.770987 35.448904 -0.696951 -12.698352 -25.945418
-849.796740 95.890969 466.514199 -37.626221 30.126028 -89.042786 -2.757211 -20.089757 -22.479143 -4.786767 41.766118 114.500533 21.166510 41.664560 -18.931237 46.461597 -29.846199 -34.265515 23.330017 45.260266 139.666686 1.975202 -4.572862 -149.911656 32.971048 25.666543 -30.448085 -39.890139 8.028776 -9.355084 -73.998611 -15.614041 -89.842191 10.076144 73.151306 -65.821672 -47.187462 -47.836398 -67.527014 59.681250 75.460715 -35.415525 118.162928 182.254104 195.955586 -2.619035 215.199248 55.190995 12.821169 10.992705 44.226817 16.314716 3.298832 -91.836558 -30.113911 -12.646412 151.150215 -38.095903 20.288462 37.673817 -0.750412 -10.335037 -21.967466
-847.145449 96.394976 467.835190 -33.211610 25.168434 -93.470722 -2.687778 -18.218876 -18.689074 -4.388846 36.325818 92.520841 14.886416 43.283243 -23.664288 46.177628 -24.823260 -33.362728 13.714667 46.997111 143.891554 2.704454 -5.820205 -152.578694 28.623327 26.469527 -26.558468 -34.997196 12.504517 -6.425027 -85.630082 -18.314138 -103.762390 9.017190 75.819929 -61.845806 -40.342721 -43.432545 -62.758339 56.610264 78.026319 -32.160277 115.429104 197.671098 196.818157 -3.313121 232.670831 54.557355 14.309708 11.732983 43.336324 11.186901 -1.266252 -93.957400 -26.932162 -12.860464 149.470740 -31.500604 23.820396 37.665297 -0.051035 -7.113392 -19.178153
